<?xml version="1.0" encoding="UTF-8" standalone="no"?>
<svg
   xmlns:dc="http://purl.org/dc/elements/1.1/"
   xmlns:cc="http://creativecommons.org/ns#"
   xmlns:rdf="http://www.w3.org/1999/02/22-rdf-syntax-ns#"
   xmlns:svg="http://www.w3.org/2000/svg"
   xmlns="http://www.w3.org/2000/svg"
   xmlns:xlink="http://www.w3.org/1999/xlink"
   xmlns:sodipodi="http://sodipodi.sourceforge.net/DTD/sodipodi-0.dtd"
   xmlns:inkscape="http://www.inkscape.org/namespaces/inkscape"
   width="2048mm"
   height="1024mm"
   viewBox="0 0 2048 1024"
   version="1.1"
   id="svg8"
   inkscape:version="1.0.2-2 (e86c870879, 2021-01-15)"
   sodipodi:docname="CBRN_Decon.svg"
   inkscape:export-filename="C:\Users\cw\Desktop\FOB_Dionysos.png"
   inkscape:export-xdpi="25.4"
   inkscape:export-ydpi="25.4">
  <defs
     id="defs2">
    <clipPath
       id="d-96">
      <circle
         cy="-15"
         r="9.5"
         id="circle848" />
      <circle
         transform="rotate(120)"
         cy="-15"
         r="9.5"
         id="circle850" />
      <circle
         transform="rotate(240)"
         cy="-15"
         r="9.5"
         id="circle852" />
    </clipPath>
    <mask
       id="b"
       maskUnits="userSpaceOnUse"
       x="-30"
       y="-30"
       width="60"
       height="60">
      <path
         d="m-27-27h54v54h-54z"
         fill="#fff"
         id="path855" />
      <path
         d="m2-23v-4h-4v4m1.5 17v4h1v-4"
         id="path857" />
      <circle
         cy="-15"
         r="10.5"
         id="circle859" />
      <g
         transform="rotate(120)"
         id="g865">
        <path
           d="m2-23v-4h-4v4m1.5 17v4h1v-4"
           id="path861" />
        <circle
           cy="-15"
           r="10.5"
           id="circle863" />
      </g>
      <g
         transform="rotate(240)"
         id="g871">
        <path
           d="m2-23v-4h-4v4m1.5 17v4h1v-4"
           id="path867" />
        <circle
           cy="-15"
           r="10.5"
           id="circle869" />
      </g>
      <circle
         r="3"
         id="circle873" />
    </mask>
  </defs>
  <sodipodi:namedview
     id="base"
     pagecolor="#012169"
     bordercolor="#666666"
     borderopacity="1.0"
     inkscape:pageopacity="1"
     inkscape:pageshadow="2"
     inkscape:zoom="0.12200406"
     inkscape:cx="3564.2046"
     inkscape:cy="523.15067"
     inkscape:document-units="px"
     inkscape:current-layer="layer1"
     inkscape:document-rotation="0"
     showgrid="false"
     inkscape:window-width="1920"
     inkscape:window-height="1137"
     inkscape:window-x="1912"
     inkscape:window-y="-8"
     inkscape:window-maximized="1" />
  <metadata
     id="metadata5">
    <rdf:RDF>
      <cc:Work
         rdf:about="">
        <dc:format>image/svg+xml</dc:format>
        <dc:type
           rdf:resource="http://purl.org/dc/dcmitype/StillImage" />
        <dc:title />
      </cc:Work>
    </rdf:RDF>
  </metadata>
  <g
     inkscape:label="Ebene 1"
     inkscape:groupmode="layer"
     id="layer1">
    <g
       style="fill:#012169;fill-opacity:1"
       id="g127"
       transform="matrix(0.93749997,0,0,0.93749997,700.70047,289.11183)">
      <path
         fill="#012169"
         d="M 0,0 H 960 V 720 H 0"
         id="path100"
         style="fill:#012169;fill-opacity:1" />
      <use
         transform="rotate(180,135.6,101.47)"
         xlink:href="#d"
         id="use102"
         x="0"
         y="0"
         width="100%"
         height="100%"
         style="fill:#012169;fill-opacity:1" />
      <g
         id="d"
         transform="translate(427.64,-170.45)"
         style="fill:#012169;fill-opacity:1">
        <use
           transform="rotate(90,-291.86,271.68)"
           xlink:href="#c"
           id="use104"
           x="0"
           y="0"
           width="100%"
           height="100%"
           style="fill:#012169;fill-opacity:1" />
        <path
           d="m -407.19,273.06 v -2.2754 h 57.573 v 2.2754 z m 114.01,56.43 h 2.2754 v 23.707 h -2.2754 z"
           id="path106"
           style="fill:#012169;fill-opacity:1" />
        <path
           id="c"
           d="m -342.74,271.84 h 50.641 l -9.1546,9.1546 7.9904,35.851 c 0,0.39688 -0.37041,0.39688 -0.37041,0 l -10.663,-33.549 z m 12.2,6.48 c 2.6458,16.034 15.214,28.998 31.591,32.041 l -1.1642,-3.0427 c -13.679,-3.0692 -24.739,-14.129 -27.781,-28.231 z"
           style="fill:#012169;fill-opacity:1" />
      </g>
      <path
         d="M 129.06,62.5 C 112.682,65.1723 99.744,78.137 97.098,94.144 l 3.0427,-1.1377 c 3.0427,-13.732 14.076,-24.791 27.781,-27.464 z"
         id="path110"
         style="fill:#012169;fill-opacity:1" />
    </g>
    <text
       xml:space="preserve"
       style="font-style:normal;font-weight:normal;font-size:200px;line-height:1.25;font-family:sans-serif;fill:#000000;fill-opacity:1;stroke:none;stroke-width:0.264583"
       x="269.41013"
       y="920.59467"
       id="text993"
       inkscape:export-xdpi="25.4"
       inkscape:export-ydpi="25.4"><tspan
         sodipodi:role="line"
         id="tspan991"
         x="269.41013"
         y="920.59467"
         style="font-style:normal;font-variant:normal;font-weight:normal;font-stretch:normal;font-size:200px;font-family:Bahnschrift;-inkscape-font-specification:Bahnschrift;fill:#ffffff;stroke-width:0.264583">Decontamination</tspan></text>
    <g
       id="g914"
       transform="matrix(15.237724,0,0,15.237724,1024,427.76721)">
      <g
         mask="url(#b)"
         id="g884">
        <circle
           cy="-11"
           r="15"
           id="circle878"
           cx="0"
           style="fill:#ffffff" />
        <circle
           cy="-11"
           r="15"
           transform="rotate(120)"
           id="circle880"
           cx="0"
           style="fill:#ffffff" />
        <circle
           cy="-11"
           r="15"
           transform="rotate(-120)"
           id="circle882"
           cx="0"
           style="fill:#ffffff" />
      </g>
      <circle
         r="11.75"
         clip-path="url(#d-96)"
         fill="none"
         stroke="#000000"
         stroke-width="3.5"
         id="circle886"
         cx="0"
         cy="0"
         style="stroke:#ffffff" />
    </g>
  </g>
</svg>
